<?xml version="1.0" standalone="no"?>
<!DOCTYPE svg PUBLIC "-//W3C//DTD SVG 20010904//EN"
 "http://www.w3.org/TR/2001/REC-SVG-20010904/DTD/svg10.dtd">
<svg version="1.0" xmlns="http://www.w3.org/2000/svg"
 width="500.000000pt" height="500.000000pt" viewBox="0 0 500.000000 500.000000"
 preserveAspectRatio="xMidYMid meet">

<g transform="translate(0.000000,500.000000) scale(0.100000,-0.100000)"
fill="#000000" stroke="none">
<path d="M1936 3005 c-33 -33 -9 -111 33 -103 9 2 22 16 29 31 25 52 -24 109
-62 72z m39 -45 c0 -18 -6 -35 -12 -37 -9 -3 -13 8 -13 37 0 29 4 40 13 38 6
-3 12 -20 12 -38z"/>
<path d="M2035 2958 c-22 -33 -48 -74 -58 -89 -14 -22 -16 -29 -5 -29 12 0 99
124 114 163 14 37 -13 14 -51 -45z"/>
<path d="M2062 2938 c-17 -17 -15 -73 2 -88 26 -21 61 -8 64 24 6 48 -6 76
-31 76 -13 0 -28 -5 -35 -12z m46 -46 c2 -23 -1 -32 -11 -32 -19 0 -29 27 -21
52 9 28 29 16 32 -20z"/>
</g>
</svg>
